# xmcd
#
# Track frame offsets: 
#        150
#        19611
#        38838
#        60199
#        76653
#        91541
#        107537
#        122604
#        136723
#        155116
#        169913
#        186210
#        203643
#        220197
#
# Disc length: 3074 seconds
#
# Revision: 0
# Processed by: cddbd v1.5.2PL0 Copyright (c) Steve Scherf et al.
# Submitted via: ExactAudioCopy v1.0b1
#
DISCID=a30c000e
DTITLE=Atmosphere - The Family Sign
DYEAR=2011
DGENRE=Hip-Hop
TTITLE0=My Key
TTITLE1=The Last To Say
TTITLE2=Became
TTITLE3=Just For Show
TTITLE4=She's Enough
TTITLE5=Bad Bad Daddy
TTITLE6=Millennium Dodo
TTITLE7=Who I'll Never Be
TTITLE8=I Don't Need Brighter Days
TTITLE9=Ain't Nobody
TTITLE10=Your Name Here
TTITLE11=If You Can Save Me Now
TTITLE12=Something So
TTITLE13=My Notes
EXTD=
EXTT0=
EXTT1=
EXTT2=
EXTT3=
EXTT4=
EXTT5=
EXTT6=
EXTT7=
EXTT8=
EXTT9=
EXTT10=
EXTT11=
EXTT12=
EXTT13=
PLAYORDER=
